<svg id="Livello_1" data-name="Livello 1" xmlns="http://www.w3.org/2000/svg" viewBox="0 0 326.41 326.41"><defs><style>.cls-1{fill:#fff;}</style></defs><title>facebook</title><path class="cls-1" d="M161.33,157.39c0-4.11-.07-7.42,0-10.73.33-13.47-.28-27.06,1.27-40.39,3-25.53,21.26-45,46.58-48.6C224.57,55.5,240.38,56.19,256,56c5-.07,7.41,3.2,7.49,8.76.14,9.33.12,18.66,0,28-.07,7.41-2.86,10-10.48,10.1-6.83,0-13.67-.09-20.49.13-12.6.4-19.3,7.16-19.56,19.76-.18,9,0,18-.05,27v7.67c14.78,0,28.75,0,42.73,0,6.77,0,9.85,3.27,9.19,10-.94,9.59-2,19.19-3.43,28.72C259.31,210,259.14,210,244.86,210h-31.6V326.09c1.74.11,3.2.28,4.67.28,21.49,0,43,.09,64.49,0,24.73-.12,43.92-19.37,43.94-44.22q.09-119,0-238C326.33,19.09,307,0,281.87,0h-237C19.12,0,0,19.06,0,44.75v236c0,26.82,18.71,45.62,45.52,45.64q55,.06,110,0h5.54V210c-9.44,0-18.57,0-27.69,0-6.91,0-9.4-2.31-9.53-9.2q-.33-16.74-.3-33.49c0-7,3-9.89,10.16-9.92C142.66,157.36,151.63,157.39,161.33,157.39Z" transform="translate(0 0)"/><path class="cls-1" d="M161.33,157.39c-9.7,0-18.67,0-27.64,0-7.11,0-10.16,2.91-10.16,9.92q0,16.74.3,33.49c.13,6.89,2.62,9.18,9.53,9.2,9.12,0,18.25,0,27.69,0V326.38h-5.54q-55,0-110,0C18.71,326.35,0,307.55,0,280.73v-236C0,19.06,19.12,0,44.89,0h237C307,0,326.33,19.09,326.35,44.17q.12,119,0,238c0,24.85-19.21,44.1-43.94,44.22-21.5.1-43,0-64.49,0-1.47,0-2.93-.17-4.67-.28V210h31.6c14.28,0,14.45,0,16.57-13.85,1.46-9.53,2.49-19.13,3.43-28.72.66-6.75-2.42-10-9.19-10-14-.07-27.95,0-42.73,0v-7.67c0-9-.13-18,.05-27,.26-12.6,7-19.36,19.56-19.76,6.82-.22,13.66-.08,20.49-.13,7.62-.07,10.41-2.69,10.48-10.1.09-9.33.11-18.66,0-28C263.41,59.18,261,55.91,256,56c-15.62.21-31.43-.48-46.81,1.69-25.32,3.58-43.61,23.07-46.58,48.6-1.55,13.33-.94,26.92-1.27,40.39C161.26,150,161.33,153.28,161.33,157.39Z" transform="translate(0 0)"/></svg>