<svg id="Livello_1" data-name="Livello 1" xmlns="http://www.w3.org/2000/svg" viewBox="0 0 321.46 316.83"><defs><style>.cls-1{fill:#fff;}</style></defs><title>instagram</title><path class="cls-1" d="M248.79,98.19c10.72.3,20.3-9.13,20.17-19.84a20,20,0,0,0-19.7-19.44A19.7,19.7,0,0,0,229.6,78.25,20,20,0,0,0,248.79,98.19Z" transform="translate(-3.06 -4.79)"/><path class="cls-1" d="M3.06,163.21Q3,206.6,3.21,250V225.06c0,7.08,0,14.16.08,21.24.07,16,3.22,31.36,12.54,44.89,15.35,22.29,37.76,30.19,63.5,30.29q84.95.33,169.88-.16c15.48-.1,30.61-3,43.93-11.78,21-13.84,31-34,31.19-58.49q.29-43.92.15-87.84.11-43.94-.15-87.85c-.16-24.52-10.22-44.65-31.19-58.49C279.82,8.08,264.69,5.19,249.21,5.09q-84.93-.51-169.88-.16c-25.74.1-48.15,8-63.5,30.29C6.51,48.75,3.36,64.15,3.29,80.11c0,7.08,0,14.16-.08,21.24V76.41Q3,119.81,3.06,163.21ZM34.29,96.35A80.45,80.45,0,0,1,35.81,82.7c5-27.52,22.2-43.84,50-47.35a172.69,172.69,0,0,1,22.58-1.63c43.43.24,86.92-.61,130.25,1.58,33.62,1.7,53.3,22.26,54.3,56q2.16,71.94.07,144c-1,35-22,55.66-57.14,56.77-42.56,1.33-85.2.13-127.8,0H95.12l-17.21-1.82c-14.51-2.38-33.59-16.35-38.33-34.35a181.07,181.07,0,0,1-5.79-43C33.23,174.05,33.94,135.19,34.29,96.35Z" transform="translate(-3.06 -4.79)"/><path class="cls-1" d="M164,246.17c45.55-.11,82.78-37.49,82.74-83.08,0-44.72-37.89-82.16-83-82.07s-82.67,37.58-82.68,82.4A82.84,82.84,0,0,0,164,246.17ZM164.59,111c29.37.35,52.38,23.56,52.28,52.73-.1,29.54-23.58,52.71-53.26,52.56a52.48,52.48,0,0,1-52.7-53.18C111.22,133.49,134.81,110.59,164.59,111Z" transform="translate(-3.06 -4.79)"/></svg>